<svg width="20" height="20" viewBox="0 0 20 20" fill="none" xmlns="http://www.w3.org/2000/svg">
<path fill-rule="evenodd" clip-rule="evenodd" d="M9.55756 5.80764C9.61561 5.74944 9.68458 5.70326 9.76052 5.67175C9.83645 5.64024 9.91785 5.62402 10.0001 5.62402C10.0823 5.62402 10.1637 5.64024 10.2396 5.67175C10.3155 5.70326 10.3845 5.74944 10.4426 5.80764L17.9426 13.3076C18.0599 13.425 18.1258 13.5842 18.1258 13.7501C18.1258 13.9161 18.0599 14.0753 17.9426 14.1926C17.8252 14.31 17.666 14.3759 17.5001 14.3759C17.3341 14.3759 17.1749 14.31 17.0576 14.1926L10.0001 7.13389L2.94256 14.1926C2.8252 14.31 2.66603 14.3759 2.50006 14.3759C2.33409 14.3759 2.17492 14.31 2.05756 14.1926C1.9402 14.0753 1.87427 13.9161 1.87427 13.7501C1.87427 13.5842 1.9402 13.425 2.05756 13.3076L9.55756 5.80764Z" fill="white"/>
</svg>
