<svg width="649" height="498" viewBox="0 0 649 498" fill="none" xmlns="http://www.w3.org/2000/svg">
<path fill-rule="evenodd" clip-rule="evenodd" d="M327 495C462.862 495 573 384.862 573 249C573 199.574 558.424 153.553 533.335 115H533V114.486C489.074 47.3528 413.216 3 327 3C191.138 3 81 113.138 81 249C81 384.862 191.138 495 327 495ZM534.956 112C490.412 44.5213 413.905 0 327 0C240.066 0 163.538 44.5506 119 112.066V112H81.7439C81.1262 110.252 79.4593 109 77.5 109C75.0147 109 73 111.015 73 113.5C73 115.985 75.0147 118 77.5 118C79.4593 118 81.1262 116.748 81.7439 115H117.094C92.8486 152.901 78.5867 197.804 78.0177 246H8.74394C8.12619 244.252 6.45933 243 4.5 243C2.01472 243 0 245.015 0 247.5C0 249.985 2.01472 252 4.5 252C6.45933 252 8.12619 250.748 8.74394 249H78C78 298.758 92.5949 345.107 117.737 384H32.7439C32.1262 382.252 30.4593 381 28.5 381C26.0147 381 24 383.015 24 385.5C24 387.985 26.0147 390 28.5 390C30.4593 390 32.1262 388.748 32.7439 387H119.707C164.346 453.918 240.525 498 327 498C413.475 498 489.654 453.918 534.293 387H622.256C622.874 388.748 624.541 390 626.5 390C628.985 390 631 387.985 631 385.5C631 383.015 628.985 381 626.5 381C624.541 381 622.874 382.252 622.256 384H536.263C561.405 345.107 576 298.758 576 249H640.256C640.874 250.748 642.541 252 644.5 252C646.985 252 649 249.985 649 247.5C649 245.015 646.985 243 644.5 243C642.541 243 640.874 244.252 640.256 246H575.982C575.413 197.804 561.151 152.901 536.906 115H607.256C607.874 116.748 609.541 118 611.5 118C613.985 118 616 115.985 616 113.5C616 111.015 613.985 109 611.5 109C609.541 109 607.874 110.252 607.256 112H534.956Z" fill="url(#paint0_linear)"/>
<defs>
<linearGradient id="paint0_linear" x1="311" y1="0" x2="311" y2="498" gradientUnits="userSpaceOnUse">
<stop stop-color="#EFCF24"/>
<stop offset="0.213542" stop-color="#E8A700"/>
<stop offset="1" stop-color="#2669B7" stop-opacity="0"/>
</linearGradient>
</defs>
</svg>
