<svg width="86" height="86" viewBox="0 0 86 86" fill="none" xmlns="http://www.w3.org/2000/svg">
<circle r="43" transform="matrix(-1 0 0 1 43 43)" fill="#46AFFB"/>
<path d="M43.0602 58.619C50.1348 58.619 55.8903 52.8665 55.8903 45.7957C55.8903 38.725 50.1347 32.9725 43.0602 32.9725C35.9858 32.9725 30.2302 38.725 30.2302 45.7957C30.2302 52.8665 35.9857 58.619 43.0602 58.619ZM54.3351 45.7957C54.3351 49.5186 52.5187 52.8251 49.7256 54.878L44.2099 46.1391L51.6005 43.073C51.9972 42.9085 52.1853 42.4535 52.0207 42.0569C51.8561 41.6601 51.401 41.4718 51.0045 41.6367L43.8378 44.6098V34.555C49.6697 34.9556 54.3351 39.8437 54.3351 45.7957ZM42.2827 34.555V45.9991L48.4125 55.7112C46.8191 56.5736 44.9959 57.0639 43.0602 57.0639C36.8433 57.0639 31.7854 52.009 31.7854 45.7958C31.7854 39.8438 36.4508 34.9556 42.2827 34.555Z" fill="white"/>
<path d="M58.6756 42.5845C58.4664 41.5619 58.1538 40.5557 57.7471 39.5939C57.3475 38.6498 56.8529 37.7393 56.2775 36.8878C56.0278 36.5188 55.7613 36.1602 55.4809 35.8123L57.7922 33.2674C57.9309 33.1146 58.0033 32.913 57.9933 32.707C57.9834 32.5009 57.8918 32.3072 57.739 32.1686L54.7493 29.4565C54.4314 29.168 53.9398 29.1919 53.6513 29.5096L51.2661 32.1358C50.6231 31.7493 49.9525 31.4073 49.2638 31.116C48.3019 30.7093 47.2956 30.3967 46.2716 30.1875C46.2153 30.176 46.1586 30.1655 46.102 30.1546L46.7234 28.2903L48.4577 27.4247C48.7212 27.2931 48.8913 27.023 48.8913 26.7285V24.3073C48.8913 22.9885 47.8108 21.9048 46.4915 21.9048H39.6275C38.3082 21.9048 37.2276 22.9885 37.2276 24.3073V26.7285C37.2276 27.023 37.3977 27.2924 37.6612 27.424L39.3937 28.2889L40.0161 30.1559C39.9601 30.1666 39.9034 30.176 39.8477 30.1875C38.8236 30.3966 37.8172 30.7092 36.8554 31.1159C36.19 31.3974 35.5417 31.7264 34.9185 32.0969L32.5686 29.5096C32.28 29.1916 31.7884 29.1678 31.4705 29.4564L28.4808 32.1686C28.328 32.3071 28.2366 32.5008 28.2266 32.7069C28.2165 32.913 28.2889 33.1145 28.4276 33.2672L30.6855 35.7534C30.3876 36.1195 30.1051 36.498 29.8414 36.8878C29.266 37.7393 28.7715 38.6498 28.3718 39.5939C27.9651 40.5557 27.6526 41.5619 27.4434 42.5845C27.228 43.6342 27.1191 44.715 27.1191 45.7958C27.1191 47.7989 27.4862 49.7522 28.2109 51.6012C28.2692 51.7497 28.3695 51.8749 28.5017 51.9635C28.7116 52.1043 28.9822 52.1346 29.2186 52.0421C29.6175 51.8857 29.815 51.4333 29.6587 51.0344C29.0055 49.3665 28.6743 47.6037 28.6743 45.7958C28.6743 41.9569 30.1711 38.3467 32.8872 35.6298C35.1468 33.3735 38.0244 31.96 41.1372 31.5467H44.9816C48.0945 31.9599 50.9721 33.3734 53.2317 35.6298C55.9478 38.3459 57.4438 41.9562 57.4447 45.7958C57.4447 49.6347 55.9478 53.245 53.2317 55.961C50.5133 58.6763 46.9006 60.1724 43.0594 60.1724C39.4794 60.1716 36.048 58.849 33.3972 56.4462C33.2534 56.3164 33.0683 56.2448 32.8747 56.2448C32.6562 56.2448 32.4455 56.3382 32.2985 56.4999C32.0108 56.8179 32.0349 57.3109 32.3522 57.5986C33.0598 58.2401 33.8288 58.821 34.639 59.3256C35.457 59.8349 36.3256 60.2673 37.2213 60.6195C39.0805 61.3512 41.0439 61.7167 43.0578 61.7167H43.0595C44.1412 61.7167 45.2219 61.6132 46.2716 61.3979C47.2957 61.1887 48.3019 60.8795 49.2638 60.4721C50.2084 60.0732 51.1198 59.58 51.9712 59.0054C52.8157 58.4354 53.6096 57.7814 54.3305 57.0606C55.052 56.3397 55.7067 55.5462 56.2774 54.7033C56.8528 53.8511 57.3475 52.9408 57.747 51.9968C58.1537 51.0357 58.4663 50.0296 58.6755 49.0063C58.8909 47.9566 58.9997 46.8765 58.9997 45.7957C58.9998 44.7149 58.8909 43.6342 58.6756 42.5845ZM31.7885 34.5303C31.7687 34.5501 31.7496 34.5704 31.7299 34.5903L30.1019 32.7977L31.9398 31.1305L33.6076 32.9668C32.964 33.4416 32.3536 33.9652 31.7885 34.5303ZM44.518 29.9916H41.601L41.0187 28.2431C41.8557 28.0268 43.377 27.7901 45.0991 28.2477L44.518 29.9916ZM40.0799 26.8941L38.7828 26.2479V24.3073C38.7828 23.846 39.1657 23.4599 39.6275 23.4599H46.4915C46.9532 23.4599 47.3361 23.846 47.3361 24.3073V26.2478L46.0336 26.8976C43.3223 25.9976 40.9623 26.5965 40.0799 26.8941ZM52.6119 32.9673L54.2801 31.1305L56.1179 32.7977L54.4497 34.6345L52.6119 32.9673Z" fill="white"/>
<path d="M34.1162 45.0284C33.6869 45.0291 33.3386 45.3775 33.3394 45.8067C33.3401 46.236 33.6885 46.5843 34.1177 46.5835C34.5469 46.5827 34.8953 46.2344 34.8945 45.8052C34.8937 45.3752 34.5454 45.0276 34.1162 45.0284Z" fill="white"/>
<path d="M43.0649 55.5101C43.4942 55.5101 43.8425 55.1618 43.8425 54.7325C43.8417 54.3025 43.4934 53.955 43.0642 53.955C42.6349 53.9557 42.2866 54.3033 42.2874 54.7333C42.2874 55.1625 42.6357 55.5108 43.0649 55.5101Z" fill="white"/>
<path d="M51.2236 45.7772V45.7958C51.2236 46.2251 51.5719 46.5734 52.0012 46.5734C52.4304 46.5734 52.7788 46.2251 52.7788 45.7958V45.7733C52.7788 45.344 52.4289 44.9965 51.9996 44.9981C51.5697 44.9988 51.2236 45.3471 51.2236 45.7772Z" fill="white"/>
<path d="M30.5735 55.175C31.0029 55.175 31.3511 54.8268 31.3511 54.3974C31.3511 53.9679 31.0029 53.6198 30.5735 53.6198C30.144 53.6198 29.7959 53.9679 29.7959 54.3974C29.7959 54.8268 30.144 55.175 30.5735 55.175Z" fill="white"/>
</svg>
