<svg width="86" height="86" viewBox="0 0 86 86" fill="none" xmlns="http://www.w3.org/2000/svg">
<circle r="43" transform="matrix(-1 0 0 1 43 43)" fill="#46AFFB"/>
<path d="M60.4545 35.4394C59.4688 33.1684 58.0666 31.1145 56.2869 29.3348C54.5072 27.5551 52.4533 26.1529 50.1822 25.1671C47.8188 24.1412 45.3387 23.6211 42.8108 23.6211C40.2829 23.6211 37.8028 24.1412 35.4394 25.1671C33.1684 26.1529 31.1145 27.5551 29.3348 29.3348C27.5551 31.1145 26.1529 33.1684 25.1671 35.4394C24.1412 37.8028 23.6211 40.2829 23.6211 42.8108C23.6211 45.3387 24.1412 47.8188 25.1671 50.1822C26.1528 52.4533 27.555 54.5072 29.3348 56.2869C31.1145 58.0666 33.1684 59.4688 35.4394 60.4545C37.8028 61.4804 40.2829 62.0005 42.8108 62.0005C45.3387 62.0005 47.8188 61.4804 50.1822 60.4545C52.4533 59.4688 54.5072 58.0666 56.2869 56.2869C58.0666 54.5072 59.4688 52.4533 60.4545 50.1822C61.4804 47.8188 62.0005 45.3387 62.0005 42.8108C62.0005 40.2829 61.4804 37.8028 60.4545 35.4394ZM42.8108 60.5013C33.2216 60.5013 25.1203 52.4 25.1203 42.8108C25.1203 33.2216 33.2216 25.1203 42.8108 25.1203C52.4 25.1203 60.5013 33.2216 60.5013 42.8108C60.5013 52.4 52.4 60.5013 42.8108 60.5013Z" fill="white"/>
<path d="M57.5004 36.6494C56.6856 34.7562 55.5243 33.048 54.0486 31.5725C52.573 30.0968 50.8648 28.9354 48.9717 28.1206C47.004 27.2737 44.931 26.8444 42.8102 26.8444C39.9271 26.8444 36.9217 27.8289 34.119 29.6914C33.7742 29.9206 33.6804 30.3858 33.9095 30.7306C34.1387 31.0754 34.604 31.1691 34.9487 30.94C37.5048 29.2414 40.2233 28.3436 42.8102 28.3436C50.6523 28.3436 57.2774 34.9687 57.2774 42.8108C57.2774 50.6529 50.6523 57.278 42.8102 57.278C34.9681 57.278 28.3429 50.6529 28.3429 42.8108C28.3429 40.2244 29.2406 37.5058 30.9387 34.9492C31.1678 34.6044 31.074 34.1392 30.7291 33.9101C30.3842 33.681 29.9191 33.7749 29.69 34.1197C27.828 36.923 26.8438 39.9283 26.8438 42.8108C26.8438 44.9316 27.2731 47.0047 28.1199 48.9722C28.9348 50.8654 30.0961 52.5736 31.5718 54.0492C33.0474 55.5249 34.7555 56.6862 36.6488 57.5011C38.6163 58.3479 40.6894 58.7772 42.8102 58.7772C44.931 58.7772 47.004 58.3479 48.9716 57.5011C50.8648 56.6862 52.573 55.5249 54.0485 54.0492C55.5242 52.5736 56.6856 50.8655 57.5004 48.9723C58.3473 47.0047 58.7766 44.9316 58.7766 42.8108C58.7766 40.69 58.3473 38.617 57.5004 36.6494Z" fill="white"/>
<path d="M32.242 31.4918C31.8283 31.4918 31.4924 31.8276 31.4924 32.2414C31.4924 32.6552 31.8283 32.991 32.242 32.991C32.6558 32.991 32.9916 32.6552 32.9916 32.2414C32.9916 31.8276 32.6558 31.4918 32.242 31.4918Z" fill="white"/>
<path d="M51.6777 36.9429C51.1113 36.3764 50.3585 36.0645 49.5578 36.0645C48.7572 36.0645 48.0043 36.3764 47.4379 36.9429L40.5626 43.8181L38.185 41.4405C37.6185 40.874 36.8657 40.562 36.065 40.562C35.2644 40.562 34.5116 40.874 33.9453 41.4403C33.3787 42.0064 33.0667 42.7593 33.0667 43.5604C33.0667 44.3615 33.3787 45.1144 33.9451 45.6804L38.4427 50.178C39.0092 50.7444 39.7621 51.0564 40.5626 51.0564C41.3632 51.0564 42.1161 50.7444 42.6826 50.178L51.6775 41.183C52.2441 40.6168 52.5562 39.8639 52.5562 39.0628C52.5562 38.2618 52.2441 37.5089 51.6777 36.9429ZM50.6177 40.1227L41.6225 49.1179C41.3391 49.4012 40.9628 49.5572 40.5626 49.5572C40.1625 49.5572 39.7861 49.4012 39.5028 49.1179L35.005 44.6201C34.7218 44.3371 34.5658 43.9608 34.5658 43.5604C34.5658 43.1601 34.7218 42.7838 35.0052 42.5006C35.2885 42.2173 35.6649 42.0612 36.065 42.0612C36.4652 42.0612 36.8416 42.2173 37.1249 42.5006L40.5626 45.9383L48.498 38.003C48.7813 37.7197 49.1577 37.5636 49.5578 37.5636C49.9579 37.5636 50.3343 37.7197 50.6179 38.0032C50.901 38.2862 51.057 38.6625 51.057 39.0628C51.057 39.4632 50.901 39.8395 50.6177 40.1227Z" fill="white"/>
</svg>
