<svg width="86" height="86" viewBox="0 0 86 86" fill="none" xmlns="http://www.w3.org/2000/svg">
<circle cx="43" cy="43" r="43" fill="#FDC139"/>
<path d="M47.0991 45.2825C46.7076 45.2825 46.3899 45.6002 46.3899 45.9917C46.3899 46.3832 46.7076 46.7009 47.0991 46.7009C47.4906 46.7009 47.8083 46.3832 47.8083 45.9917C47.8083 45.6002 47.4905 45.2825 47.0991 45.2825Z" fill="white"/>
<path d="M47.2129 37.7666L45.6192 36.8464C45.6606 36.5762 45.681 36.317 45.681 36.0632C45.681 35.8095 45.6607 35.5503 45.6192 35.2801L47.2129 34.3598C47.552 34.164 47.6681 33.7303 47.4724 33.3911L46.054 30.9344C45.96 30.7715 45.8051 30.6526 45.6234 30.6039C45.4416 30.5553 45.2481 30.5808 45.0853 30.6748L43.4852 31.5987C43.0767 31.2821 42.6252 31.0242 42.1351 30.8275V28.7586C42.1351 28.3669 41.8176 28.0494 41.4259 28.0494H38.5891C38.1974 28.0494 37.8799 28.3669 37.8799 28.7586V30.8286C37.3933 31.0252 36.9378 31.2854 36.5311 31.5992L34.9296 30.6749C34.5904 30.479 34.1569 30.5953 33.961 30.9345L32.5426 33.3911C32.3468 33.7303 32.463 34.164 32.8021 34.3599L34.3958 35.2802C34.3544 35.5504 34.334 35.8096 34.334 36.0633C34.334 36.317 34.3543 36.5762 34.3958 36.8464L32.8021 37.7667C32.463 37.9625 32.3468 38.3962 32.5426 38.7354L33.961 41.192C34.1568 41.5312 34.5905 41.6474 34.9296 41.4516L36.5311 40.5273C36.9378 40.8411 37.3932 41.1013 37.8799 41.2979V43.1551C37.8799 43.5468 38.1974 43.8643 38.5891 43.8643H41.4259C41.8176 43.8643 42.1351 43.5468 42.1351 43.1551V41.2989C42.6252 41.1024 43.0767 40.8445 43.4852 40.5277L45.0853 41.4516C45.2481 41.5456 45.4418 41.5712 45.6234 41.5225C45.8051 41.4738 45.96 41.355 46.054 41.192L47.4724 38.7354C47.6681 38.3962 47.552 37.9625 47.2129 37.7666ZM45.1802 39.8685L43.7605 39.0487C43.4891 38.8919 43.147 38.932 42.9191 39.1472C42.4454 39.5942 41.8743 39.9205 41.2213 40.1172C40.9217 40.2074 40.7167 40.4833 40.7167 40.7963V42.4458H39.2983V40.7963C39.2983 40.4834 39.0932 40.2074 38.7936 40.1172C38.1405 39.9206 37.5697 39.5943 37.0969 39.1475C36.8691 38.9322 36.5268 38.8919 36.2553 39.0487L34.8348 39.8687L34.1256 38.6403L35.544 37.8212C35.8156 37.6643 35.9519 37.3476 35.8791 37.0425C35.7938 36.6849 35.7524 36.3646 35.7524 36.0632C35.7524 35.7617 35.7938 35.4413 35.8791 35.0838C35.9519 34.7787 35.8156 34.462 35.544 34.3052L34.1256 33.486L34.8348 32.2577L36.2553 33.0776C36.5269 33.2344 36.869 33.1942 37.0969 32.9788C37.5697 32.5321 38.1405 32.2058 38.7936 32.0091C39.0933 31.9189 39.2983 31.643 39.2983 31.3301V29.4678H40.7167V31.3301C40.7167 31.643 40.9218 31.919 41.2213 32.0092C41.8743 32.2058 42.4454 32.5322 42.9191 32.9792C43.147 33.1944 43.4891 33.2344 43.7605 33.0777L45.1802 32.2579L45.8894 33.4861L44.471 34.3052C44.1994 34.4621 44.0631 34.7788 44.1358 35.0839C44.2212 35.4415 44.2626 35.7618 44.2626 36.0632C44.2626 36.3647 44.2212 36.6851 44.1358 37.0426C44.0631 37.3478 44.1994 37.6644 44.471 37.8212L45.8894 38.6404L45.1802 39.8685Z" fill="white"/>
<path d="M40.0081 33.2264C38.444 33.2264 37.1714 34.499 37.1714 36.0632C37.1714 37.6273 38.4439 38.8999 40.0081 38.8999C41.5723 38.8999 42.8449 37.6274 42.8449 36.0632C42.8449 34.499 41.5723 33.2264 40.0081 33.2264ZM40.0081 37.4815C39.2261 37.4815 38.5898 36.8453 38.5898 36.0632C38.5898 35.2811 39.2261 34.6448 40.0081 34.6448C40.7902 34.6448 41.4265 35.2811 41.4265 36.0632C41.4265 36.8453 40.7903 37.4815 40.0081 37.4815Z" fill="white"/>
<path d="M44.2634 45.2825H34.3349C33.9432 45.2825 33.6257 45.6 33.6257 45.9917C33.6257 46.3834 33.9432 46.7009 34.3349 46.7009H44.2634C44.6551 46.7009 44.9726 46.3834 44.9726 45.9917C44.9726 45.6 44.6551 45.2825 44.2634 45.2825Z" fill="white"/>
<path d="M58.8726 36.7724H56.3196V27.1275C56.3195 25.9544 55.3651 25 54.192 25H26.8177C25.6447 25 24.6902 25.9544 24.6902 27.1275V47.41C24.6902 48.5831 25.6446 49.5375 26.8177 49.5375H30.7891V54.1153C30.7891 54.3836 30.9405 54.6288 31.1803 54.7491C31.2809 54.7995 31.3898 54.8244 31.4983 54.8244C31.6483 54.8244 31.7974 54.7769 31.9222 54.6838L35.0442 52.3564V54.9273C35.0442 56.1004 35.9986 57.0548 37.1718 57.0548H50.1528L55.1557 61.2336C55.2858 61.3423 55.4473 61.3985 55.6105 61.3985C55.7124 61.3985 55.8149 61.3765 55.9108 61.3317C56.1602 61.215 56.3195 60.9646 56.3195 60.6893V57.0548H58.8726C60.0457 57.0548 61.0001 56.1004 61.0001 54.9272V38.8998C61.0002 37.7268 60.0457 36.7724 58.8726 36.7724ZM32.2075 52.7021V48.8284C32.2075 48.4367 31.89 48.1192 31.4983 48.1192H26.8177C26.4267 48.1192 26.1085 47.8011 26.1085 47.41V27.1275C26.1085 26.7365 26.4267 26.4183 26.8177 26.4183H54.192C54.5831 26.4183 54.9012 26.7365 54.9012 27.1275V47.41C54.9012 47.8011 54.5831 48.1192 54.192 48.1192H38.5901C38.4373 48.1192 38.2887 48.1685 38.1663 48.2598L32.2075 52.7021ZM59.5818 54.9273C59.5818 55.3184 59.2636 55.6365 58.8726 55.6365H55.6103C55.2186 55.6365 54.9011 55.954 54.9011 56.3457V59.1731L50.8646 55.8015C50.7371 55.695 50.5762 55.6366 50.41 55.6366H37.1718C36.7807 55.6366 36.4626 55.3185 36.4626 54.9274V51.2992L38.8253 49.5376H54.192C55.3651 49.5376 56.3195 48.5832 56.3195 47.4101V38.1907H58.8726C59.2636 38.1907 59.5818 38.5088 59.5818 38.8999V54.9273Z" fill="white"/>
</svg>
