<svg width="86" height="86" viewBox="0 0 86 86" fill="none" xmlns="http://www.w3.org/2000/svg">
<circle r="43" transform="matrix(-1 0 0 1 43 43)" fill="#46AFFB"/>
<path d="M50.3796 47.1946C49.4793 47.1946 48.7468 46.5606 48.7468 45.7814C48.7468 45.0021 49.4793 44.3681 50.3796 44.3681C51.28 44.3681 52.0125 45.0021 52.0125 45.7814C52.0125 46.1912 52.3448 46.5236 52.7546 46.5236C53.1645 46.5236 53.4968 46.1912 53.4968 45.7814C53.4968 44.4213 52.4834 43.2778 51.1218 42.9674V42.5814C51.1218 42.1715 50.7895 41.8392 50.3796 41.8392C49.9698 41.8392 49.6375 42.1715 49.6375 42.5814V42.9674C48.2758 43.2778 47.2625 44.4213 47.2625 45.7814C47.2625 47.3791 48.6608 48.679 50.3796 48.679C51.28 48.679 52.0125 49.3129 52.0125 50.0922C52.0125 50.8715 51.28 51.5055 50.3796 51.5055C49.4793 51.5055 48.7468 50.8715 48.7468 50.0922C48.7468 49.6824 48.4145 49.35 48.0046 49.35C47.5948 49.35 47.2625 49.6824 47.2625 50.0922C47.2625 51.4523 48.2758 52.5958 49.6375 52.9062V53.2269C49.6375 53.6367 49.9698 53.969 50.3796 53.969C50.7895 53.969 51.1218 53.6367 51.1218 53.2269V52.9062C52.4834 52.5958 53.4968 51.4523 53.4968 50.0922C53.4968 48.4944 52.0985 47.1946 50.3796 47.1946Z" fill="white"/>
<path d="M58.5084 42.7799C57.5389 41.2692 56.173 40.0603 54.5584 39.2841C54.1888 39.1064 53.7454 39.262 53.5678 39.6315C53.3902 40.0009 53.5457 40.4443 53.9152 40.6219C56.7289 41.9745 58.5469 44.8645 58.5469 47.9845C58.5469 49.3195 58.2178 50.6435 57.5953 51.8135C57.4028 52.1753 57.54 52.6248 57.9019 52.8173C58.013 52.8764 58.1323 52.9045 58.2499 52.9045C58.5154 52.9045 58.7723 52.7615 58.9057 52.5107C59.6421 51.127 60.0313 49.5618 60.0313 47.9845C60.0313 46.132 59.5047 44.3323 58.5084 42.7799Z" fill="white"/>
<path d="M51.5468 38.3361L51.4968 38.336C51.087 38.336 50.7546 38.6683 50.7546 39.0782C50.7546 39.4881 51.087 39.8204 51.4968 39.8204L51.5398 39.8204C51.541 39.8204 51.5421 39.8204 51.5434 39.8204C51.9516 39.8204 52.2835 39.4905 52.2855 39.0817C52.2873 38.6718 51.9566 38.338 51.5468 38.3361Z" fill="white"/>
<path d="M46.8509 55.3471C44.0372 53.9945 42.2192 51.1045 42.2192 47.9845C42.2192 46.6495 42.5483 45.3255 43.1708 44.1555C43.3633 43.7937 43.2261 43.3442 42.8642 43.1517C42.5025 42.9592 42.0528 43.0964 41.8604 43.4583C41.1241 44.8421 40.7349 46.4072 40.7349 47.9845C40.7349 49.837 41.2614 51.6367 42.2577 53.1891C43.2272 54.6998 44.5931 55.9087 46.2078 56.685C46.3114 56.7348 46.421 56.7584 46.5288 56.7584C46.8052 56.7584 47.0705 56.6033 47.1983 56.3376C47.3757 55.9682 47.2203 55.5247 46.8509 55.3471Z" fill="white"/>
<path d="M49.2695 56.1485L49.2265 56.1484C48.8147 56.1476 48.4828 56.4771 48.481 56.8871C48.479 57.297 48.8099 57.6308 49.2197 57.6328L49.2695 57.6329C49.6793 57.6329 50.0117 57.3006 50.0117 56.8907C50.0117 56.4809 49.6793 56.1485 49.2695 56.1485Z" fill="white"/>
<path d="M53.753 35.825C53.6627 35.6097 53.552 35.4069 53.4233 35.2188H55.3555C57.238 35.2188 58.7695 33.6872 58.7695 31.8047C58.7695 29.9222 57.238 28.3906 55.3555 28.3906H49.412C49.7899 27.8413 50.0117 27.1766 50.0117 26.4609C50.0117 24.5785 48.4801 23.0469 46.5977 23.0469H28.4141C26.5316 23.0469 25 24.5785 25 26.4609C25 28.3434 26.5316 29.875 28.4141 29.875H34.3575C33.9797 30.4244 33.7578 31.089 33.7578 31.8047C33.7578 32.5204 33.9796 33.185 34.3575 33.7344H32.4219C30.5394 33.7344 29.0078 35.266 29.0078 37.1484C29.0078 38.2296 29.5135 39.1944 30.3003 39.8203C29.5135 40.4463 29.0078 41.411 29.0078 42.4922C29.0078 43.5733 29.5135 44.5381 30.3003 45.1641C29.5135 45.79 29.0078 46.7548 29.0078 47.8359C29.0078 48.9171 29.5135 49.8819 30.3003 50.5078C29.5135 51.1338 29.0078 52.0985 29.0078 53.1797C29.0078 55.0622 30.5394 56.5938 32.4219 56.5938H41.1686C43.4727 59.0583 46.7507 60.6016 50.3829 60.6016C57.34 60.6016 63.0001 54.9416 63.0001 47.9845C63.0001 42.1941 59.0791 37.303 53.753 35.825ZM55.3555 29.875C56.4195 29.875 57.2852 30.7407 57.2852 31.8047C57.2852 32.8687 56.4195 33.7344 55.3555 33.7344H50.6055H37.1719C36.1078 33.7344 35.2422 32.8687 35.2422 31.8047C35.2422 30.7407 36.1078 29.875 37.1719 29.875H55.3555ZM28.4141 28.3906C27.35 28.3906 26.4844 27.5249 26.4844 26.4609C26.4844 25.3969 27.35 24.5313 28.4141 24.5313H46.5977C47.6617 24.5313 48.5273 25.3969 48.5273 26.4609C48.5273 27.5249 47.6617 28.3906 46.5977 28.3906H28.4141ZM32.4219 35.2188H50.6055C50.9044 35.2188 51.1907 35.2882 51.4475 35.4126C51.0964 35.3831 50.7415 35.3673 50.3829 35.3673C46.8987 35.3673 43.7399 36.787 41.4544 39.0781H32.4219C31.3579 39.0781 30.4922 38.2124 30.4922 37.1484C30.4922 36.0844 31.3579 35.2188 32.4219 35.2188ZM32.4219 40.5625H40.1863C39.3437 41.7168 38.6923 43.0188 38.2786 44.4219H32.4219C31.3578 44.4219 30.4922 43.5563 30.4922 42.4922C30.4922 41.4282 31.3578 40.5625 32.4219 40.5625ZM32.4219 45.9063H37.9378C37.8252 46.5826 37.7657 47.2766 37.7657 47.9845C37.7657 48.589 37.8094 49.1835 37.892 49.7656H32.4219C31.3578 49.7656 30.4922 48.9 30.4922 47.8359C30.4922 46.7719 31.3578 45.9063 32.4219 45.9063ZM32.4219 55.1094C31.3578 55.1094 30.4922 54.2438 30.4922 53.1797C30.4922 52.1156 31.3578 51.25 32.4219 51.25H38.1951C38.5696 52.6463 39.1779 53.9476 39.9758 55.1094H32.4219ZM50.3829 59.1173C44.2443 59.1173 39.2501 54.1231 39.2501 47.9845C39.2501 41.8458 44.2443 36.8516 50.3829 36.8516C56.5215 36.8516 61.5157 41.8458 61.5157 47.9845C61.5157 54.1231 56.5215 59.1173 50.3829 59.1173Z" fill="white"/>
</svg>
