<svg width="86" height="86" viewBox="0 0 86 86" fill="none" xmlns="http://www.w3.org/2000/svg">
<circle cx="43" cy="43" r="43" fill="#FDC139"/>
<path d="M42.8794 41.12C42.7805 41.12 42.6832 41.1032 42.5893 41.068L26.6611 35.1997C26.3308 35.079 26.1128 34.7638 26.1128 34.4133C26.1128 34.0629 26.3324 33.7477 26.6627 33.627L37.561 29.6198C37.9936 29.4622 38.4782 29.6835 38.6375 30.1177C38.7967 30.552 38.5737 31.0332 38.1395 31.1942L29.3789 34.4133L42.8794 39.388L56.3799 34.4133L47.6193 31.1925C47.1851 31.0332 46.9621 30.5503 47.1214 30.1161C47.2806 29.6818 47.7635 29.4605 48.1978 29.6181L59.0961 33.6253C59.4264 33.7477 59.646 34.0629 59.646 34.4133C59.646 34.7638 59.4281 35.079 59.0978 35.1997L43.1695 41.068C43.0756 41.1032 42.9783 41.12 42.8794 41.12Z" fill="white"/>
<path d="M42.8793 61.2398C42.7804 61.2398 42.6831 61.223 42.5909 61.1878L33.6878 57.9183C33.2536 57.759 33.0306 57.2778 33.1899 56.8419C33.3492 56.4076 33.832 56.1846 34.2663 56.3439L42.8793 59.5078L51.494 56.3439C51.9282 56.183 52.4094 56.4076 52.5704 56.8419C52.7297 57.2761 52.5067 57.7573 52.0724 57.9183L43.1694 61.1878C43.0755 61.223 42.9782 61.2398 42.8793 61.2398Z" fill="white"/>
<path d="M26.9511 50.7775C26.4884 50.7775 26.1128 50.4019 26.1128 49.9392V34.4133C26.1128 33.9505 26.4884 33.575 26.9511 33.575C27.4139 33.575 27.7895 33.9505 27.7895 34.4133V49.9392C27.7895 50.4019 27.4139 50.7775 26.9511 50.7775Z" fill="white"/>
<path d="M58.8083 50.7775C58.3455 50.7775 57.97 50.4019 57.97 49.9392V34.4133C57.97 33.9505 58.3455 33.575 58.8083 33.575C59.2711 33.575 59.6466 33.9505 59.6466 34.4133V49.9392C59.6466 50.4019 59.2711 50.7775 58.8083 50.7775Z" fill="white"/>
<path d="M42.8796 34.4133C42.4168 34.4133 42.0413 34.0377 42.0413 33.5749V26.8683C42.0413 26.4055 42.4168 26.03 42.8796 26.03C43.3423 26.03 43.7179 26.4055 43.7179 26.8683V33.5749C43.7179 34.0377 43.3423 34.4133 42.8796 34.4133Z" fill="white"/>
<path d="M57.8685 56.9477C57.6539 56.9477 57.4393 56.8655 57.275 56.7029L53.1839 52.6118C52.857 52.2849 52.857 51.7534 53.1839 51.4264C53.5109 51.0995 54.0424 51.0995 54.3693 51.4264L58.4604 55.5175C58.7873 55.8444 58.7873 56.3759 58.4604 56.7029C58.2977 56.8655 58.0831 56.9477 57.8685 56.9477Z" fill="white"/>
<path d="M27.89 56.9477C27.6754 56.9477 27.4608 56.8655 27.2965 56.7029C26.9695 56.3759 26.9695 55.8444 27.2965 55.5175L31.3875 51.4264C31.7145 51.0995 32.246 51.0995 32.5729 51.4264C32.8999 51.7534 32.8999 52.2849 32.5729 52.6118L28.4819 56.7029C28.3192 56.8655 28.1046 56.9477 27.89 56.9477Z" fill="white"/>
<path d="M42.8796 61.24C42.4168 61.24 42.0413 60.8644 42.0413 60.4017V40.2818C42.0413 39.819 42.4168 39.4434 42.8796 39.4434C43.3423 39.4434 43.7179 39.819 43.7179 40.2818V60.4017C43.7179 60.8644 43.3423 61.24 42.8796 61.24Z" fill="white"/>
<path d="M42.8792 27.7066C41.0298 27.7066 39.5259 26.2027 39.5259 24.3533C39.5259 22.504 41.0298 21 42.8792 21C44.7286 21 46.2325 22.504 46.2325 24.3533C46.2325 26.2027 44.7286 27.7066 42.8792 27.7066ZM42.8792 22.6767C41.9554 22.6767 41.2025 23.4295 41.2025 24.3533C41.2025 25.2772 41.9554 26.03 42.8792 26.03C43.803 26.03 44.5559 25.2772 44.5559 24.3533C44.5559 23.4295 43.803 22.6767 42.8792 22.6767Z" fill="white"/>
<path d="M59.6458 61.2399C57.7964 61.2399 56.2925 59.7359 56.2925 57.8866C56.2925 56.0372 57.7964 54.5333 59.6458 54.5333C61.4952 54.5333 62.9991 56.0372 62.9991 57.8866C62.9991 59.7359 61.4952 61.2399 59.6458 61.2399ZM59.6458 56.2099C58.722 56.2099 57.9691 56.9627 57.9691 57.8866C57.9691 58.8104 58.722 59.5632 59.6458 59.5632C60.5696 59.5632 61.3225 58.8104 61.3225 57.8866C61.3225 56.9627 60.5696 56.2099 59.6458 56.2099Z" fill="white"/>
<path d="M26.1126 61.2399C24.2632 61.2399 22.7593 59.7359 22.7593 57.8866C22.7593 56.0372 24.2632 54.5333 26.1126 54.5333C27.962 54.5333 29.4659 56.0372 29.4659 57.8866C29.4659 59.7359 27.962 61.2399 26.1126 61.2399ZM26.1126 56.2099C25.1888 56.2099 24.4359 56.9627 24.4359 57.8866C24.4359 58.8104 25.1888 59.5632 26.1126 59.5632C27.0364 59.5632 27.7893 58.8104 27.7893 57.8866C27.7893 56.9627 27.0364 56.2099 26.1126 56.2099Z" fill="white"/>
</svg>
