<svg width="86" height="86" viewBox="0 0 86 86" fill="none" xmlns="http://www.w3.org/2000/svg">
<circle cx="43" cy="43" r="43" fill="#FDC139"/>
<path d="M64.8215 39.6041L57.4794 30.0665C57.2077 29.7138 56.712 29.6268 56.3362 29.8657L51.5958 32.8805H45.4134C45.3334 32.8805 45.2538 32.8975 45.1768 32.92L40.3833 34.2998L35.4093 32.9394L30.5763 29.8657C30.2068 29.6308 29.7202 29.7104 29.4455 30.0511L21.3246 40.1101C21.0328 40.4715 21.081 40.9993 21.433 41.3022L25.6894 44.9652L29.508 50.1111C28.3912 51.3009 28.413 53.1774 29.575 54.3397C30.09 54.8545 30.745 55.1453 31.4187 55.2129C31.3953 55.3655 31.3832 55.5205 31.3832 55.6778C31.3832 56.4897 31.6995 57.2531 32.2735 57.827C32.8478 58.4013 33.6111 58.7176 34.4231 58.7176C34.4341 58.7176 34.4448 58.7169 34.4555 58.7166C34.4552 58.7374 34.4542 58.7578 34.4542 58.7785C34.4542 59.5904 34.7705 60.3538 35.3444 60.9281C35.9187 61.5021 36.6821 61.8184 37.494 61.8184C37.6543 61.8184 37.813 61.8053 37.9686 61.7812C38.0345 62.4573 38.326 63.1152 38.8428 63.632C39.4351 64.2247 40.2136 64.5209 40.992 64.5209C41.7705 64.5209 42.5489 64.2247 43.1417 63.632L43.6065 63.1671L43.8016 63.3244C44.3893 63.8937 45.1524 64.1782 45.9154 64.1782C46.6939 64.1782 47.4723 63.882 48.0647 63.2893C48.6695 62.6845 48.9656 61.8863 48.9533 61.0921C49.7471 61.1042 50.5456 60.8083 51.1504 60.2039C51.7545 59.5995 52.0507 58.802 52.039 58.0081C52.8659 58.0212 53.6504 57.7036 54.2358 57.1182C54.8405 56.5135 55.1367 55.7153 55.1243 54.9211C55.9188 54.9331 56.7167 54.6373 57.3214 54.0325C58.3536 53.0004 58.4864 51.405 57.721 50.2273L60.5092 44.3879L64.701 40.7808C65.0474 40.4826 65.1003 39.9658 64.8215 39.6041ZM30.3012 31.7295L33.7765 33.9394L26.2165 43.1496L23.1871 40.5422L30.3012 31.7295ZM30.7915 51.2571L31.8404 50.2082C31.8722 50.1764 31.9056 50.1463 31.9398 50.1182C32.1449 49.9508 32.3933 49.8511 32.6563 49.8273C32.6637 49.8267 32.6714 49.8267 32.6787 49.8263C32.7162 49.8233 32.7537 49.8213 32.7915 49.8216C33.151 49.8267 33.485 49.9736 33.7326 50.235C34.2186 50.7487 34.1925 51.5881 33.6744 52.1061L32.6573 53.1232C32.1429 53.6376 31.3059 53.6376 30.7915 53.1232C30.2771 52.6085 30.2771 51.7715 30.7915 51.2571ZM33.49 56.6105C33.2407 56.3615 33.1034 56.0302 33.1034 55.6778C33.1034 55.3254 33.2407 54.994 33.49 54.7447L35.5238 52.7109C35.9134 52.3213 36.5258 52.2146 37.0238 52.4519C37.5372 52.6965 37.826 53.2537 37.7507 53.8143C37.7106 54.1135 37.5713 54.3953 37.3578 54.6092L35.3561 56.6105C35.1068 56.8598 34.7755 56.9971 34.4231 56.9971C34.0707 56.9971 33.7393 56.8598 33.49 56.6105ZM36.561 59.7113C36.3116 59.4623 36.1744 59.1309 36.1744 58.7785C36.1744 58.4261 36.3116 58.0948 36.561 57.8455L38.5944 55.8116C39.0111 55.3953 39.6795 55.3056 40.1895 55.6025C40.6554 55.8736 40.8993 56.4057 40.8193 56.9358C40.7755 57.2273 40.637 57.5014 40.4285 57.7099L38.4271 59.7113C38.1778 59.9606 37.8464 60.0978 37.494 60.0978C37.1416 60.0978 36.8103 59.9606 36.561 59.7113ZM40.059 62.4154C39.5446 61.901 39.5446 61.064 40.059 60.5496L41.1078 59.5008C41.1396 59.469 41.1728 59.4392 41.2069 59.4111C41.2079 59.4104 41.2086 59.4097 41.2092 59.409C41.3799 59.2705 41.5804 59.1778 41.7943 59.1373C41.7993 59.1366 41.8043 59.136 41.8093 59.1353C41.8461 59.1286 41.8836 59.1232 41.9211 59.1199C41.9362 59.1186 41.9512 59.1186 41.9666 59.1175C41.9974 59.1159 42.0279 59.1139 42.059 59.1142C42.4181 59.1192 42.7524 59.2658 43.0001 59.5275C43.0305 59.5597 43.059 59.5931 43.0851 59.6276C43.4807 60.1447 43.4275 60.9127 42.9365 61.404L41.9248 62.4158C41.4104 62.9302 40.5734 62.9298 40.059 62.4154ZM56.1049 52.816C55.5905 53.3307 54.7535 53.3304 54.2391 52.816C54.2204 52.7972 54.2006 52.7798 54.1805 52.7634L48.6497 47.1744C48.3154 46.8367 47.7709 46.834 47.4332 47.1684C47.0955 47.5024 47.0928 48.0469 47.4268 48.3846L53.0175 54.0335C53.0182 54.0342 53.0189 54.0349 53.0195 54.0355C53.5339 54.5499 53.5339 55.3873 53.0195 55.9017C52.7702 56.151 52.4389 56.2882 52.0865 56.2882C51.7337 56.2882 51.4024 56.151 51.1534 55.9017L47.4134 52.1229C47.0794 51.7852 46.5349 51.7825 46.1972 52.1165C45.8595 52.4508 45.8569 52.9954 46.1909 53.333L49.8736 57.054C49.8924 57.0774 49.9124 57.0998 49.9339 57.1212C50.4482 57.6356 50.4482 58.473 49.9339 58.9874C49.4191 59.5018 48.5818 59.5014 48.0674 58.987L46.0262 56.9244C45.6919 56.5867 45.1474 56.5837 44.8097 56.9181C44.472 57.2521 44.4693 57.7966 44.8033 58.1343L46.7876 60.139C46.8063 60.1624 46.8264 60.1852 46.8482 60.2066C47.3626 60.721 47.3626 61.5583 46.8482 62.0727C46.3338 62.5874 45.4967 62.5871 44.9824 62.0727C44.9231 62.0135 44.8535 61.968 44.7872 61.9171C44.731 61.8743 44.7163 61.8445 44.7444 61.7762C44.7729 61.7069 44.8154 61.6443 44.8438 61.5747C44.8753 61.4971 44.9007 61.4171 44.9255 61.3368C45.0573 60.9117 45.0961 60.4546 45.0369 60.0135C44.9231 59.1671 44.4576 58.4034 43.7521 57.9201C43.3709 57.6594 42.9298 57.4884 42.4726 57.4241C42.6942 56.4469 42.4281 55.3873 41.736 54.656C41.1664 54.0543 40.397 53.7166 39.5693 53.7052C39.5392 53.7049 39.5091 53.7049 39.4786 53.7052C39.4971 52.9154 39.2099 52.1306 38.6654 51.5553C38.0954 50.9535 37.326 50.6158 36.4987 50.6045C36.2527 50.6011 36.0044 50.6272 35.7648 50.6824C35.6624 49.9699 35.3033 49.3106 34.7594 48.839C34.2189 48.3712 33.5392 48.1115 32.8153 48.1014C32.0532 48.0904 31.3046 48.3715 30.7386 48.8826L27.4137 44.4023L35.3682 34.7115L37.9033 35.4049L34.5924 41.2473C34.1921 41.9538 34.0911 42.7738 34.3076 43.5562C34.5241 44.339 35.0322 44.9903 35.7387 45.3906C35.7828 45.4157 35.8274 45.4394 35.8725 45.4622C35.8759 45.4639 35.8792 45.4655 35.8829 45.4672C36.0017 45.5264 36.1239 45.5773 36.2477 45.6202C36.8243 45.82 37.4472 45.8417 38.0479 45.6757C38.8304 45.4592 39.4817 44.9508 39.8819 44.2446L42.0335 40.4478L45.8753 40.7202L56.1052 50.9498C56.6193 51.4646 56.6193 52.3016 56.1049 52.816ZM56.4613 48.8732L46.8646 39.2767C46.8465 39.2583 46.8274 39.2409 46.8077 39.2245C46.6694 39.1094 46.4981 39.0398 46.3174 39.0271L41.6135 38.6934C41.2882 38.671 40.9649 38.844 40.8043 39.1275L38.3853 43.3966C38.2116 43.7031 37.9288 43.9237 37.5891 44.0177C37.2497 44.1118 36.8936 44.0676 36.5867 43.8939C36.2802 43.7202 36.0596 43.4374 35.9656 43.0977C35.8715 42.758 35.9154 42.4019 36.0894 42.0954L39.3187 36.3962L40.6272 36.0197C40.6359 36.017 40.6443 36.0137 40.653 36.011L45.5369 34.6007H51.4379L58.8047 43.9655L56.4613 48.8732ZM59.9316 42.6155L53.1189 33.9504L56.5959 31.7392L62.9617 40.008L59.9316 42.6155Z" fill="white"/>
<path d="M47.7097 31.2652C47.9299 31.2652 48.1502 31.1812 48.3182 31.0132L54.1937 25.1377C54.5297 24.8017 54.5297 24.2572 54.1937 23.9211C53.8577 23.5851 53.3132 23.5851 52.9772 23.9211L47.1016 29.7967C46.7656 30.1327 46.7656 30.6772 47.1016 31.0132C47.2696 31.1812 47.4898 31.2652 47.7097 31.2652Z" fill="white"/>
<path d="M37.8165 31.0132C37.9845 31.1812 38.2047 31.2652 38.4249 31.2652C38.6448 31.2652 38.865 31.1812 39.033 31.0132C39.3691 30.6772 39.3691 30.1327 39.033 29.7967L33.1575 23.9211C32.8215 23.5851 32.277 23.5851 31.941 23.9211C31.605 24.2572 31.605 24.8017 31.941 25.1377L37.8165 31.0132Z" fill="white"/>
<path d="M43.0679 31.2654C43.5428 31.2654 43.928 30.8802 43.928 30.4053V25.5428C43.928 25.0679 43.5428 24.6827 43.0679 24.6827C42.593 24.6827 42.2078 25.0679 42.2078 25.5428V30.4053C42.2078 30.8802 42.593 31.2654 43.0679 31.2654Z" fill="white"/>
<path d="M42.2731 22.4253C42.4096 22.7563 42.75 22.9735 43.1091 22.9547C43.4638 22.9363 43.7754 22.6967 43.8852 22.359C43.9953 22.0186 43.8755 21.6308 43.5903 21.4139C43.2995 21.1923 42.8939 21.1799 42.5897 21.3811C42.2503 21.6053 42.1188 22.0518 42.2731 22.4253Z" fill="white"/>
</svg>
